<?xml version="1.0" encoding="UTF-8" standalone="no"?>
<svg
   xmlns:dc="http://purl.org/dc/elements/1.1/"
   xmlns:cc="http://creativecommons.org/ns#"
   xmlns:rdf="http://www.w3.org/1999/02/22-rdf-syntax-ns#"
   xmlns:svg="http://www.w3.org/2000/svg"
   xmlns="http://www.w3.org/2000/svg"
   id="svg3"
   version="1.1"
   viewBox="0 0 224.9999 93.442043"
   height="124.58961"
   width="300">
  <metadata
     id="metadata9">
    <rdf:RDF>
      <cc:Work
         rdf:about="">
        <dc:format>image/svg+xml</dc:format>
        <dc:type
           rdf:resource="http://purl.org/dc/dcmitype/StillImage" />
        <dc:title></dc:title>
      </cc:Work>
    </rdf:RDF>
  </metadata>
  <defs
     id="defs7" />
  <path
     style="fill:#ffffff;stroke:#000000;stroke-width:0.11943983"
     d="m 123.76389,2.4892985 c 4.22101,4.221 3.06961,11.6501605 -2.37804,14.2288605 -1.53839,0.72859 -2.63724,0.82892 -4.29984,0.80981 -1.04151,-0.0131 -2.28608,-0.36549 -3.22487,-0.80981 -3.97257,-1.88117 -5.89914,-6.49752 -4.56858,-10.6564205 1.05824,-3.31445 3.60111,-5.29953998 6.95737,-5.91942998 2.70173,-0.34638 5.55395,0.38698 7.51396,2.34698998 z M 40.45461,26.485949 c 0,0 0.324877,-2.03047 0.324877,-2.03047 0.03941,-0.28427 0.08838,-0.79786 0.29382,-1.00449 0.219769,-0.21858 0.818164,-0.26755 1.123932,-0.30935 0,0 2.508236,-0.40729 2.508236,-0.40729 0.39654,-0.0669 0.95313,-0.0968 1.193201,-0.46223 0.176771,-0.26635 0.451485,-2.25503 0.527925,-2.71368 0,0 1.05585,-6.44975 1.05585,-6.44975 0.07644,-0.47059 0.349958,-2.55123 0.508811,-2.82953 0.188715,-0.3284605 0.677224,-0.3487605 1.014045,-0.4049005 0,0 2.508236,-0.41923 2.508236,-0.41923 0,0 6.92751,-1.13349 6.92751,-1.13349 0,0 3.822075,-0.58764 3.822075,-0.58764 0,0 0,14.8105405 0,14.8105405 0,0 10.510707,0 10.510707,0 0,0 -2.030479,12.3023 -2.030479,12.3023 0,0 -8.480228,0 -8.480228,0 0,0 0,22.21581 0,22.21581 0.03345,2.82236 1.502554,4.65338 4.419274,4.65815 2.074669,0.004 3.064826,-0.34876 5.016473,-0.71663 0,0 0,12.06342 0,12.06342 0,0.25441 0.02749,0.68439 -0.121827,0.89461 -0.24366,0.34279 -1.586163,0.54225 -2.02809,0.64377 -1.207537,0.2783 -3.319233,0.60556 -4.538715,0.63065 0,0 -1.911033,0 -1.911033,0 0,0 -2.50824,0 -2.50824,0 0,0 -2.149917,-0.24247 -2.149917,-0.24247 -3.903292,-0.54225 -7.770753,-2.03764 -9.980392,-5.50975 -2.751892,-4.32253 -2.560789,-9.19329 -2.560789,-14.09391 0,0 0,-20.54365 0,-20.54365 0,0 -6.808072,0 -6.808072,0 0,0 1.36281,-8.36079 1.36281,-8.36079 z M 4.4542507,59.520619 c 2.0639205,0.89939 3.54378,1.536 5.7331123,2.16545 2.827141,0.81219 6.263425,1.67335 9.196868,1.17768 1.635131,-0.27711 3.288176,-1.22904 3.44106,-3.05408 0.123022,-1.45359 -1.017627,-2.62648 -2.127222,-3.37418 -2.051977,-1.38311 -5.71878,-2.52734 -8.12191,-3.50555 -2.7733924,-1.12991 -6.010212,-2.79729 -8.1171304,-4.94601 -2.7889204,-2.84506 -3.87223945,-6.72566 -3.82685245,-10.62895 0.01911,-1.55033 0.40848445,-3.91165 0.91849235,-5.3748 0.3547365,-1.01523 1.0630144,-2.46762 1.6757407,-3.34431 2.545263,-3.64411 6.1714564,-5.56231 10.4247088,-6.49992 1.174094,-0.25918 2.991968,-0.54464 4.180395,-0.54703 0,0 3.941513,0 3.941513,0 0,0 4.180395,0.4479 4.180395,0.4479 0,0 4.419273,0.95074 4.419273,0.95074 2.10453,0.5984 3.619028,1.20634 5.613672,2.06511 0,0 -2.030475,12.42175 -2.030475,12.42175 -2.237108,-0.89461 -4.357167,-1.91104 -6.688632,-2.57632 -1.562272,-0.44551 -3.163961,-0.77994 -4.777593,-0.97343 0,0 -1.07496,-0.0669 -1.07496,-0.0669 -1.754569,-0.20783 -4.549462,0.0406 -5.1598,2.06392 -0.408484,1.35564 0.41804,2.47718 1.457166,3.25354 1.710379,1.2792 4.537519,2.28727 6.56919,3.03855 5.674586,2.09737 11.645385,4.95676 13.445343,11.26557 0.372652,1.30548 0.631837,3.18307 0.648559,4.53871 0.02389,2.10453 -0.271129,4.31536 -0.887437,6.33031 -0.308156,1.00568 -0.862358,2.20486 -1.405808,3.10544 -0.511203,0.84563 -1.43328,2.04481 -2.13678,2.72681 -3.825656,3.71458 -9.266141,4.97706 -14.441471,5.05589 0,0 -0.836077,0 -0.836077,0 0,0 -2.508237,0 -2.508237,0 -1.154983,-0.0335 -3.83163,-0.41326 -5.016472,-0.6402 -2.9023883,-0.55659 -5.4930383,-1.26487 -8.2413491,-2.36491 0,0 -1.91103713,-0.86594 -1.91103713,-0.86594 -0.22693574,-0.11347 -0.6975285,-0.3201 -0.84443962,-0.52315 -0.16721587,-0.25798 -0.04777613,-0.70827 0,-0.9997 0,0 0.35712525,-2.26936 0.35712525,-2.26936 0,0 1.4428331,-9.19687 1.4428331,-9.19687 0.7500821,0.14213 1.7282944,0.80383 2.5082362,1.14423 z M 155.30676,22.387969 c 2.45688,-0.85638 4.04781,-0.81099 6.56919,-0.79905 2.40791,0.012 5.5432,1.04032 7.52471,2.39238 1.94926,1.32937 3.29893,2.89881 4.53155,4.89345 2.53809,4.11112 3.65366,10.49637 3.7098,15.2883 0,0 0.11944,1.7916 0.11944,1.7916 0,0 0,2.03048 0,2.03048 0,0 -0.11944,2.38879 -0.11944,2.38879 0,0 -0.44551,4.29984 -0.44551,4.29984 -0.93999,6.52499 -3.51512,13.1969 -9.10968,17.11334 -3.15321,2.20724 -7.03262,3.38731 -10.86902,3.43031 0,0 -1.91104,0 -1.91104,0 -2.74473,-0.031 -3.90091,-0.49926 -6.44975,-1.07496 0,0 0,15.52718 0,15.52718 0,0 -0.12183,0.88504 -0.12183,0.88504 0,0 -1.07257,0.31891 -1.07257,0.31891 0,0 -2.62768,0.43834 -2.62768,0.43834 0,0 -8.24135,1.35326 -8.24135,1.35326 0,0 -4.53871,0.70708 -4.53871,0.70708 0,0 0,-70.82782 0,-70.82782 0,0 13.61614,0 13.61614,0 0,0 0.95433,0.1911 0.95433,0.1911 0,0 0.31054,1.36162 0.31054,1.36162 0,0 0.52673,3.58319 0.52673,3.58319 1.92178,-2.20724 4.86359,-4.32133 7.64415,-5.29238 z m 66.79911,40.76601 c 0,0 0.73456,4.65816 0.73456,4.65816 0,0 0.32129,2.03048 0.32129,2.03048 0.0705,0.33204 0.16363,0.74052 0,1.04987 -0.2544,0.41326 -1.35564,0.90416 -1.80473,1.1299 -1.72113,0.85997 -3.50914,1.51689 -5.3748,1.98509 -2.25382,0.56615 -5.70444,1.20634 -8.00247,1.20993 0,0 -1.31383,0 -1.31383,0 0,0 -1.07496,0.0788 -1.07496,0.0788 0,0 -1.07496,-0.0788 -1.07496,-0.0788 0,0 -1.31384,0 -1.31384,0 0,0 -1.1944,-0.10869 -1.1944,-0.10869 -3.07079,-0.22455 -6.29806,-0.96508 -9.07742,-2.31116 -1.23262,-0.59601 -2.7734,-1.52047 -3.82208,-2.39119 -6.97051,-5.79761 -8.22104,-14.85234 -8.12191,-23.37676 0,0 0.11466,-1.31384 0.11466,-1.31384 0.28547,-6.54889 2.42105,-13.36413 7.05651,-18.15486 2.97525,-3.07318 7.04217,-4.96153 11.22257,-5.66264 0.92805,-0.15647 1.92656,-0.30815 2.86655,-0.30935 0,0 3.22488,0 3.22488,0 0,0 2.03048,0.20663 2.03048,0.20663 3.93554,0.56137 7.46857,2.08423 10.39126,4.82059 3.63336,3.40165 5.61726,8.78839 6.41989,13.60539 0,0 0.50762,4.41928 0.50762,4.41928 0,0 0.11944,2.50823 0.11944,2.50823 0,0 0,1.55273 0,1.55273 0,0 -0.11944,1.55271 -0.11944,1.55271 0,0 0,1.67216 0,1.67216 0,0 -0.11944,1.7916 -0.11944,1.7916 0,0 -27.23228,0 -27.23228,0 0.0442,0.96029 0.33204,2.31116 0.63661,3.22487 0.33921,1.01763 0.61751,1.7486 1.26487,2.62768 1.99106,2.69934 5.2028,3.35865 8.37035,3.34432 0,0 1.31383,-0.12422 1.31383,-0.12422 0,0 1.07496,0 1.07496,0 2.59065,-0.26158 5.19683,-0.77636 7.64415,-1.67335 1.27323,-0.46701 2.50585,-1.03316 3.70263,-1.66619 0,0 0.62945,3.70263 0.62945,3.70263 z M 93.99471,25.530439 c 2.140361,-2.72204 5.171744,-3.70742 8.51964,-3.70264 0.96627,0.001 1.91821,0.18513 2.86656,0.35832 0,0 0,15.40774 0,15.40774 -0.61034,-0.1505 -1.28279,-0.2353 -1.91104,-0.23888 -2.63603,-0.0119 -5.018859,0.0406 -7.405269,1.35086 -0.710666,0.39057 -2.103334,1.3652 -2.406713,2.11289 -0.119437,0.29502 -0.100327,0.6414 -0.101523,0.95552 0,0 0,32.48764 0,32.48764 0,0 -16.602135,0 -16.602135,0 0,0 0,-51.71745 0,-51.71745 0,0 14.57166,0 14.57166,0 0,0 0.955518,5.73311 0.955518,5.73311 0.424009,-1.05943 0.796662,-1.83698 1.513302,-2.74711 z m 31.92985,-2.986 c 0,0 0,51.71745 0,51.71745 0,0 -16.60214,0 -16.60214,0 0,0 0,-51.71745 0,-51.71745 0,0 16.60214,0 16.60214,0 z m 82.37288,14.33278 c -0.37863,-1.09168 -0.87789,-2.16664 -1.75577,-2.95016 -2.04242,-1.82266 -5.32582,-1.37356 -6.93229,0.80024 -1.58019,2.14036 -2.2598,6.20371 -2.2598,8.83855 0,0 11.94398,0 11.94398,0 0,-2.22158 -0.26635,-4.57932 -0.99612,-6.68863 z m -58.12659,-0.69156 c -0.94716,0.7465 -1.31145,0.89222 -1.31384,2.12484 0,0 0,22.69357 0,22.69357 0,0.25082 -0.0299,0.67006 0.11824,0.87788 0.26516,0.37026 1.79279,0.72619 2.27056,0.81816 2.62289,0.50285 4.90419,0.0681 6.69818,-2.05556 2.52257,-2.98719 3.20935,-8.02994 3.21532,-11.82335 0,0 0.0788,-1.31384 0.0788,-1.31384 0,0 -0.0788,-1.31383 -0.0788,-1.31383 0,0 0,-1.43328 0,-1.43328 -0.012,-0.96388 -0.30696,-3.08394 -0.50165,-4.06095 -0.50761,-2.55363 -1.55032,-5.6507 -4.39538,-6.34226 -0.59481,-0.14452 -1.41895,-0.13139 -2.03048,-0.0729 -1.56944,0.26038 -2.81878,0.92327 -4.06095,1.90148 z"
     id="Selection #1" />
</svg>
