<?xml version="1.0" standalone="no"?>
<!DOCTYPE svg PUBLIC "-//W3C//DTD SVG 20010904//EN"
 "http://www.w3.org/TR/2001/REC-SVG-20010904/DTD/svg10.dtd">
<svg version="1.0" xmlns="http://www.w3.org/2000/svg"
 width="300.000000pt" height="300.000000pt" viewBox="0 0 300.000000 300.000000"
 preserveAspectRatio="xMidYMid meet">
<metadata>
Created by potrace 1.11, written by Peter Selinger 2001-2013
</metadata>
<g transform="translate(0.000000,300.000000) scale(0.100000,-0.100000)"
fill="#000000" stroke="none">
<path d="M1524 2666 c-93 -18 -170 -40 -278 -82 -72 -28 -102 -34 -165 -34
-64 0 -88 -5 -153 -34 -96 -42 -222 -125 -313 -208 -39 -34 -101 -81 -139
-103 -80 -46 -112 -85 -155 -190 -17 -41 -60 -131 -96 -200 -109 -212 -133
-321 -100 -450 14 -55 75 -189 125 -275 11 -19 20 -53 20 -76 0 -23 7 -81 15
-130 47 -274 153 -464 299 -534 94 -45 277 -88 430 -102 222 -20 419 10 609
93 72 31 117 43 207 54 203 27 446 98 605 177 162 81 307 205 354 302 35 72
48 222 31 370 -19 170 -18 188 25 306 33 90 39 120 43 207 3 74 0 114 -11 147
-22 65 -90 159 -187 260 -155 161 -326 271 -521 337 -51 17 -120 49 -152 71
-32 22 -88 54 -125 71 -61 28 -77 31 -182 34 -66 1 -145 -3 -186 -11z m-476
-348 c9 -9 12 -98 12 -341 l0 -329 39 31 c22 17 63 42 93 56 304 139 612 6
683 -296 22 -96 22 -720 -1 -743 -12 -13 -40 -16 -143 -16 -85 0 -131 4 -139
12 -9 9 -12 93 -12 317 0 193 -4 321 -11 346 -15 53 -91 129 -144 144 -57 16
-94 14 -168 -9 -82 -25 -171 -101 -187 -158 -6 -21 -10 -163 -10 -334 0 -284
-1 -298 -19 -308 -11 -5 -74 -10 -140 -10 -95 0 -123 3 -135 16 -14 14 -16
101 -16 809 0 708 2 795 16 809 12 13 40 16 143 16 85 0 131 -4 139 -12z
m1265 -1338 c122 -83 102 -257 -35 -315 -80 -33 -159 -14 -220 53 -80 89 -54
215 57 276 46 25 152 18 198 -14z"/>
</g>
</svg>
