<?xml version="1.0" encoding="UTF-8" standalone="no"?>
<svg
   xmlns:dc="http://purl.org/dc/elements/1.1/"
   xmlns:cc="http://creativecommons.org/ns#"
   xmlns:rdf="http://www.w3.org/1999/02/22-rdf-syntax-ns#"
   xmlns:svg="http://www.w3.org/2000/svg"
   xmlns="http://www.w3.org/2000/svg"
   xmlns:sodipodi="http://sodipodi.sourceforge.net/DTD/sodipodi-0.dtd"
   xmlns:inkscape="http://www.inkscape.org/namespaces/inkscape"
   version="1.1"
   id="Layer_2"
   x="0px"
   y="0px"
   viewBox="0 0 286.41306 273.19312"
   xml:space="preserve"
   sodipodi:docname="logo-orange.svg"
   width="286.41306"
   height="273.19312"
   inkscape:version="1.0.1 (3bc2e813f5, 2020-09-07)"><metadata
   id="metadata243"><rdf:RDF><cc:Work
       rdf:about=""><dc:format>image/svg+xml</dc:format><dc:type
         rdf:resource="http://purl.org/dc/dcmitype/StillImage" /><dc:title></dc:title></cc:Work></rdf:RDF></metadata><defs
   id="defs241" /><sodipodi:namedview
   pagecolor="#ffffff"
   bordercolor="#666666"
   borderopacity="1"
   objecttolerance="10"
   gridtolerance="10"
   guidetolerance="10"
   inkscape:pageopacity="0"
   inkscape:pageshadow="2"
   inkscape:window-width="2560"
   inkscape:window-height="1380"
   id="namedview239"
   showgrid="false"
   fit-margin-top="0"
   fit-margin-left="0"
   fit-margin-right="0"
   fit-margin-bottom="0"
   inkscape:zoom="0.34563527"
   inkscape:cx="1019.0206"
   inkscape:cy="498.31916"
   inkscape:window-x="1920"
   inkscape:window-y="32"
   inkscape:window-maximized="1"
   inkscape:current-layer="Layer_2" />
<style
   type="text/css"
   id="style184">
	.st0{opacity:0.8;}
	.st1{fill:#F18700;}
	.st2{opacity:0.44;}
	.st3{opacity:0.49;}
	.st4{fill:#FFFFFF;}
</style>
<g
   id="g236"
   transform="translate(-813.27298,-396.86701)">
	<g
   id="g204">
		<g
   class="st0"
   id="g190">
			<g
   id="g188">
				<path
   class="st1"
   d="m 814.2,523.4 c -8.5,34.2 42.5,107.5 110,125.8 73.1,19.8 163.9,-18.1 173.2,-55.2 4.2,-16.7 7.4,-82.7 -40.2,-121.8 -52,-42.8 -135.4,-65.1 -149.6,-60 -41.2,14.7 -82.7,68.3 -93.4,111.2"
   id="path186" />
			</g>
		</g>
		<g
   class="st2"
   id="g196">
			<g
   id="g194">
				<path
   class="st1"
   d="m 832,604.1 c 14.9,32 100.7,56.8 164.6,28.5 69.3,-30.6 116,-117.2 99.9,-151.8 -7.3,-15.6 -46.3,-68.9 -107.9,-69.4 -67.4,-0.5 -146.2,34.6 -154,47.5 -22.7,37.2 -21.2,105.1 -2.6,145.2"
   id="path192" />
			</g>
		</g>
		<g
   class="st3"
   id="g202">
			<g
   id="g200">
				<path
   class="st1"
   d="m 1002.4,401.6 c -30.9,-17.1 -114.8,13.2 -150,73.7 -38.1,65.5 -25,163 8.5,181.5 15,8.3 78,28.6 128.1,-7.3 54.8,-39.2 97.9,-113.9 96.7,-129 C 1082.1,477 1041,423 1002.4,401.6"
   id="path198" />
			</g>
		</g>
	</g>
	<g
   id="g214">
		<path
   class="st4"
   d="m 854.9,473.3 v 20.2 c 0.4,-0.6 1,-1.1 1.7,-1.7 0.8,-0.6 1.7,-1.1 2.7,-1.5 1,-0.4 2.1,-0.8 3.2,-1.1 1.1,-0.3 2.3,-0.4 3.4,-0.4 2.1,0 4,0.4 5.7,1.1 1.7,0.8 3.1,1.8 4.3,3.1 1.2,1.3 2.1,2.9 2.7,4.7 0.6,1.8 1,3.8 1,5.8 0,0.3 0,0.6 0.1,0.8 v 17.8 c 0,0.6 -0.2,1 -0.5,1.3 -0.3,0.3 -0.8,0.5 -1.3,0.5 H 872 c -0.7,0 -1.1,-0.1 -1.3,-0.4 -0.2,-0.3 -0.4,-0.7 -0.4,-1.3 v -17.9 c 0,-1.9 -0.6,-3.5 -1.9,-4.8 -1.3,-1.3 -2.9,-2 -4.8,-2 -0.9,0 -1.9,0.2 -2.9,0.5 -1,0.4 -2,0.8 -2.8,1.5 -0.9,0.6 -1.6,1.4 -2.2,2.2 -0.6,0.8 -0.8,1.7 -0.8,2.7 v 18 c 0,0.7 -0.2,1.1 -0.7,1.3 -0.5,0.2 -1,0.3 -1.5,0.3 h -5.2 c -1.2,0 -1.8,-0.5 -1.8,-1.6 v -49.2 c 0,-0.5 0.1,-0.9 0.4,-1.2 0.3,-0.3 0.7,-0.5 1.3,-0.5 h 5.8 c 0.5,0 0.9,0.1 1.3,0.4 0.3,0.3 0.4,0.7 0.4,1.4 z"
   id="path206" />
		<path
   class="st4"
   d="m 885.1,479 c 0,-1.5 0.5,-2.8 1.6,-3.9 1.1,-1.1 2.3,-1.6 3.9,-1.6 1.6,0 2.9,0.5 3.9,1.6 1,1.1 1.6,2.3 1.6,3.9 0,1.5 -0.5,2.8 -1.6,3.8 -1,1 -2.3,1.6 -3.9,1.6 -1.5,0 -2.8,-0.5 -3.9,-1.6 -1.1,-1 -1.6,-2.3 -1.6,-3.8 z m 10.5,12 v 31.4 c 0,1.1 -0.6,1.6 -1.8,1.6 h -6.2 c -1.1,0 -1.6,-0.5 -1.6,-1.6 V 491 c 0,-0.5 0.1,-0.9 0.4,-1.2 0.3,-0.3 0.7,-0.5 1.2,-0.5 h 6.2 c 0.4,0 0.8,0.2 1.2,0.5 0.4,0.3 0.6,0.7 0.6,1.2 z"
   id="path208" />
		<path
   class="st4"
   d="m 925.7,524.8 c 0.2,-0.6 0.3,-1.4 0.4,-2.3 0.1,-0.9 0.1,-1.8 0.1,-2.6 -0.8,1.4 -1.8,2.5 -3.2,3.4 -1.4,0.9 -3.2,1.4 -5.4,1.4 -2.5,0 -4.7,-0.5 -6.8,-1.4 -2.1,-0.9 -3.9,-2.2 -5.4,-3.8 -1.5,-1.6 -2.7,-3.5 -3.6,-5.7 -0.8,-2.2 -1.3,-4.5 -1.3,-7 0,-2.5 0.4,-4.8 1.3,-7 0.8,-2.2 2,-4.1 3.6,-5.7 1.5,-1.6 3.3,-2.9 5.4,-3.8 2.1,-0.9 4.3,-1.4 6.8,-1.4 2.3,0 4.2,0.5 5.8,1.6 1.6,1 2.9,2.1 3.9,3.3 l 0.6,-2.5 c 0.2,-0.7 0.4,-1.1 0.6,-1.4 0.2,-0.3 0.6,-0.4 1.3,-0.4 h 4.1 c 0.5,0 1,0.2 1.5,0.5 0.4,0.3 0.7,0.8 0.7,1.5 v 29.9 c 0,2.8 -0.5,5.3 -1.4,7.5 -0.9,2.2 -2.2,4 -3.8,5.5 -1.6,1.5 -3.5,2.6 -5.7,3.4 -2.2,0.8 -4.5,1.2 -7.1,1.2 -1,0 -2,-0.1 -3.1,-0.2 -1.1,-0.1 -2.2,-0.4 -3.4,-0.7 -1.1,-0.3 -2.2,-0.7 -3.3,-1.2 -1,-0.5 -2,-1.1 -2.8,-1.8 -0.2,-0.2 -0.4,-0.4 -0.6,-0.7 -0.2,-0.3 -0.3,-0.6 -0.3,-1 0,-0.2 0,-0.5 0.1,-0.7 0,-0.2 0.2,-0.5 0.4,-0.7 l 2.8,-3.8 c 0.5,-0.5 1,-0.8 1.4,-0.8 0.4,0 0.9,0.2 1.5,0.6 0.9,0.8 2.1,1.4 3.4,1.7 1.3,0.3 2.5,0.4 3.5,0.4 0.8,0 1.6,-0.1 2.4,-0.4 0.8,-0.2 1.6,-0.6 2.3,-1 0.7,-0.4 1.4,-0.9 1.9,-1.6 0.8,-0.8 1.2,-1.5 1.4,-2.3 z m -15.9,-17.9 c 0,1.3 0.2,2.5 0.6,3.7 0.4,1.1 1,2.1 1.7,3 0.8,0.8 1.7,1.5 2.7,2 1,0.5 2.2,0.7 3.5,0.7 2.6,0 4.7,-0.9 6.3,-2.7 1.5,-1.8 2.3,-4 2.3,-6.6 0,-1.3 -0.2,-2.5 -0.6,-3.6 -0.4,-1.2 -0.9,-2.2 -1.7,-3 -0.8,-0.9 -1.7,-1.6 -2.7,-2.1 -1,-0.5 -2.2,-0.7 -3.6,-0.7 -1.3,0 -2.4,0.2 -3.5,0.7 -1.1,0.5 -2,1.2 -2.7,2.1 -0.7,0.9 -1.3,1.9 -1.7,3 -0.4,1 -0.6,2.2 -0.6,3.5 z"
   id="path210" />
		<path
   class="st4"
   d="m 951.9,473.3 v 20.2 c 0.4,-0.6 1,-1.1 1.7,-1.7 0.8,-0.6 1.7,-1.1 2.7,-1.5 1,-0.4 2.1,-0.8 3.2,-1.1 1.1,-0.3 2.3,-0.4 3.4,-0.4 2.1,0 4,0.4 5.7,1.1 1.7,0.8 3.1,1.8 4.3,3.1 1.2,1.3 2.1,2.9 2.7,4.7 0.6,1.8 1,3.8 1,5.8 0,0.3 0,0.6 0.1,0.8 v 17.8 c 0,0.6 -0.2,1 -0.5,1.3 -0.3,0.3 -0.8,0.5 -1.3,0.5 H 969 c -0.7,0 -1.1,-0.1 -1.3,-0.4 -0.2,-0.3 -0.4,-0.7 -0.4,-1.3 v -17.9 c 0,-1.9 -0.6,-3.5 -1.9,-4.8 -1.3,-1.3 -2.9,-2 -4.8,-2 -0.9,0 -1.9,0.2 -2.9,0.5 -1,0.4 -2,0.8 -2.8,1.5 -0.9,0.6 -1.6,1.4 -2.2,2.2 -0.6,0.8 -0.8,1.7 -0.8,2.7 v 18 c 0,0.7 -0.2,1.1 -0.7,1.3 -0.5,0.2 -1,0.3 -1.5,0.3 h -5.2 c -1.2,0 -1.8,-0.5 -1.8,-1.6 v -49.2 c 0,-0.5 0.1,-0.9 0.4,-1.2 0.3,-0.3 0.7,-0.5 1.3,-0.5 h 5.8 c 0.5,0 0.9,0.1 1.3,0.4 0.2,0.3 0.4,0.7 0.4,1.4 z"
   id="path212" />
	</g>
	<g
   id="g234">
		<path
   class="st4"
   d="m 841.6,576.8 c -0.1,-0.1 -0.1,-0.4 -0.1,-0.7 0,-0.1 0,-0.3 0.1,-0.5 0,-0.2 0.2,-0.4 0.4,-0.5 l 4.3,-3.5 c 0.1,-0.2 0.4,-0.4 0.8,-0.4 0.3,0 0.7,0.2 1.1,0.5 0.9,0.8 1.9,1.6 3,2.5 1.1,0.9 2.4,1.3 3.9,1.3 1.6,0 2.7,-0.3 3.3,-1 0.6,-0.7 0.9,-1.5 0.9,-2.4 0,-0.5 -0.2,-1 -0.6,-1.4 -0.4,-0.4 -0.9,-0.8 -1.5,-1.1 -0.6,-0.3 -1.1,-0.6 -1.7,-0.8 -0.6,-0.2 -1.1,-0.4 -1.5,-0.5 -4.2,-1.1 -7.1,-2.5 -9,-4.2 -1.8,-1.7 -2.7,-4 -2.7,-6.8 0,-1.4 0.3,-2.7 1,-3.9 0.6,-1.2 1.5,-2.3 2.7,-3.2 1.2,-0.9 2.5,-1.7 4.2,-2.2 1.7,-0.5 3.4,-0.8 5.4,-0.8 2.4,0 4.5,0.4 6.4,1.2 1.9,0.8 3.5,1.8 5,3.1 0.8,0.8 1.3,1.6 1.3,2.1 0,0.2 -0.3,0.5 -0.8,1.1 -0.5,0.5 -1.1,1 -1.7,1.6 -0.6,0.5 -1.3,1 -1.8,1.4 -0.6,0.4 -1,0.6 -1.2,0.6 -0.4,0 -0.8,-0.2 -1.2,-0.6 -0.7,-0.6 -1.4,-1.1 -2.3,-1.7 -0.9,-0.5 -2,-0.8 -3.4,-0.8 -0.9,0 -1.7,0.2 -2.5,0.5 -0.8,0.3 -1.2,0.9 -1.2,1.8 0,0.8 0.5,1.5 1.5,2 1,0.5 2.3,1 4,1.5 1.8,0.6 3.4,1.3 4.9,1.9 1.5,0.6 2.7,1.5 3.8,2.4 1,0.9 1.8,1.9 2.4,3.1 0.6,1.2 0.8,2.5 0.8,4.1 0,1.8 -0.4,3.4 -1.2,4.8 -0.8,1.4 -1.8,2.5 -3.1,3.5 -1.3,0.9 -2.8,1.6 -4.6,2.1 -1.7,0.5 -3.5,0.7 -5.3,0.7 -2.5,0 -4.8,-0.4 -7,-1.3 -2.2,-0.9 -4,-2.2 -5.5,-3.8 -0.7,-0.6 -1.1,-1.2 -1.3,-1.7 z"
   id="path216" />
		<path
   class="st4"
   d="m 874.6,538.5 c 0,-1.2 0.7,-1.9 2.2,-2.1 l 5.2,-0.8 c 0.1,0 0.3,-0.1 0.5,-0.1 0.7,0 1.1,0.2 1.3,0.6 0.2,0.4 0.4,0.9 0.4,1.5 v 10.3 h 4.2 c 0.6,0 1,0.2 1.4,0.5 0.4,0.3 0.5,0.9 0.5,1.5 v 3.9 c 0,0.8 -0.2,1.3 -0.5,1.7 -0.3,0.4 -0.8,0.5 -1.4,0.5 h -4.2 v 24.6 c 0,0.7 -0.1,1.2 -0.4,1.5 -0.3,0.4 -0.8,0.5 -1.5,0.5 h -5.9 c -0.7,0 -1.2,-0.2 -1.4,-0.5 -0.2,-0.4 -0.4,-0.9 -0.4,-1.5 V 556 h -1.9 c -1.4,0 -2.1,-0.7 -2.1,-2.2 v -3.9 c 0,-1.4 0.7,-2.1 2.1,-2.1 h 1.9 z"
   id="path218" />
		<path
   class="st4"
   d="m 902,550.1 c 0,0.2 0.2,0.7 0.4,1.4 0.2,0.7 0.3,1.1 0.4,1.4 0.4,-0.6 0.9,-1.2 1.5,-1.8 0.6,-0.6 1.3,-1.2 2,-1.7 0.8,-0.5 1.6,-0.9 2.4,-1.2 0.9,-0.3 1.8,-0.5 2.9,-0.5 0.2,0 0.5,0 0.7,0 0.2,0 0.4,0 0.7,0.1 0.7,0 1.4,0.2 2.3,0.5 0.8,0.3 1.7,0.7 2.4,1.1 0.8,0.4 1.4,0.8 1.9,1.3 0.5,0.4 0.8,0.9 0.8,1.2 0,0.3 -0.1,0.6 -0.4,1 l -2.8,4.6 c -0.4,0.7 -0.9,1 -1.5,1 -0.2,0 -0.5,-0.1 -0.8,-0.2 -0.4,-0.2 -0.8,-0.4 -1.2,-0.6 -0.7,-0.5 -1.2,-0.8 -1.7,-1 -0.5,-0.2 -1.1,-0.3 -1.7,-0.3 -1,0 -2,0.2 -2.8,0.6 -0.8,0.4 -1.5,0.9 -2.1,1.6 -0.6,0.7 -1,1.4 -1.3,2.2 -0.3,0.8 -0.5,1.6 -0.5,2.4 v 17.9 c 0,1.2 -0.6,1.8 -1.9,1.8 h -5.9 c -1.2,0 -1.8,-0.6 -1.8,-1.8 v -31 c 0,-0.6 0.2,-1.1 0.6,-1.4 0.4,-0.3 0.8,-0.5 1.3,-0.5 h 4.5 c 0.6,0 1,0.2 1.2,0.6 0.1,0.4 0.3,0.8 0.4,1.3 z"
   id="path220" />
		<path
   class="st4"
   d="m 937.9,575.3 c 1,0 2.1,-0.1 3,-0.4 1,-0.3 2,-0.8 2.9,-1.3 0.4,-0.2 0.7,-0.4 1.1,-0.6 0.3,-0.2 0.6,-0.4 0.9,-0.4 0.4,0 0.8,0.2 1.1,0.6 l 2.6,4.2 c 0.2,0.4 0.4,0.7 0.4,0.9 0,0.4 -0.1,0.7 -0.4,1 -0.2,0.3 -0.5,0.5 -0.8,0.7 -1.5,1.1 -3.1,2 -4.9,2.7 -1.8,0.7 -3.7,1 -5.7,1 -2.5,0 -4.8,-0.5 -7,-1.4 -2.2,-0.9 -4.1,-2.2 -5.7,-3.9 -1.6,-1.6 -2.9,-3.5 -3.9,-5.8 -1,-2.2 -1.5,-4.6 -1.5,-7.1 0,-2.5 0.5,-4.8 1.4,-7 0.9,-2.2 2.2,-4.1 3.8,-5.8 1.6,-1.7 3.5,-3 5.6,-4 2.1,-1 4.4,-1.5 6.8,-1.5 2.3,0 4.4,0.4 6.4,1.3 2,0.8 3.8,2 5.3,3.5 1.5,1.5 2.7,3.2 3.6,5.1 0.9,2 1.3,4 1.3,6.3 0,1.8 -0.2,3.2 -0.5,4 -0.3,0.8 -1,1.2 -2,1.2 h -22 c 0.1,1 0.4,2 0.9,2.8 0.5,0.8 1.2,1.5 1.9,2.1 0.8,0.6 1.6,1 2.5,1.3 1.2,0.3 2,0.5 2.9,0.5 z m -8,-13.4 h 15.2 c -0.1,-1.8 -0.9,-3.3 -2.3,-4.6 -1.4,-1.3 -3.2,-1.9 -5.3,-1.9 -0.8,0 -1.7,0.2 -2.5,0.5 -0.8,0.3 -1.6,0.8 -2.3,1.4 -0.7,0.6 -1.3,1.3 -1.8,2.1 -0.6,0.8 -0.9,1.6 -1,2.5 z"
   id="path222" />
		<path
   class="st4"
   d="m 974.8,575.3 c 1,0 2.1,-0.1 3,-0.4 1,-0.3 2,-0.8 2.9,-1.3 0.4,-0.2 0.7,-0.4 1.1,-0.6 0.3,-0.2 0.6,-0.4 0.9,-0.4 0.4,0 0.8,0.2 1.1,0.6 l 2.6,4.2 c 0.2,0.4 0.4,0.7 0.4,0.9 0,0.4 -0.1,0.7 -0.4,1 -0.2,0.3 -0.5,0.5 -0.8,0.7 -1.5,1.1 -3.1,2 -4.9,2.7 -1.8,0.7 -3.7,1 -5.7,1 -2.5,0 -4.8,-0.5 -7,-1.4 -2.2,-0.9 -4.1,-2.2 -5.7,-3.9 -1.6,-1.6 -2.9,-3.5 -3.9,-5.8 -1,-2.2 -1.5,-4.6 -1.5,-7.1 0,-2.5 0.5,-4.8 1.4,-7 0.9,-2.2 2.2,-4.1 3.8,-5.8 1.6,-1.7 3.5,-3 5.6,-4 2.1,-1 4.4,-1.5 6.8,-1.5 2.3,0 4.4,0.4 6.4,1.3 2,0.8 3.8,2 5.3,3.5 1.5,1.5 2.7,3.2 3.6,5.1 0.9,2 1.3,4 1.3,6.3 0,1.8 -0.2,3.2 -0.5,4 -0.3,0.8 -1,1.2 -2,1.2 h -22 c 0.1,1 0.4,2 0.9,2.8 0.5,0.8 1.2,1.5 1.9,2.1 0.8,0.6 1.6,1 2.5,1.3 1.2,0.3 2.1,0.5 2.9,0.5 z m -8,-13.4 H 982 c -0.1,-1.8 -0.9,-3.3 -2.3,-4.6 -1.4,-1.3 -3.2,-1.9 -5.3,-1.9 -0.8,0 -1.7,0.2 -2.5,0.5 -0.8,0.3 -1.6,0.8 -2.3,1.4 -0.7,0.6 -1.3,1.3 -1.8,2.1 -0.5,0.8 -0.8,1.6 -1,2.5 z"
   id="path224" />
		<path
   class="st4"
   d="m 996.5,538.5 c 0,-1.2 0.7,-1.9 2.2,-2.1 l 5.2,-0.8 c 0.1,0 0.3,-0.1 0.5,-0.1 0.7,0 1.1,0.2 1.3,0.6 0.2,0.4 0.4,0.9 0.4,1.5 v 10.3 h 4.2 c 0.6,0 1,0.2 1.4,0.5 0.4,0.4 0.5,0.9 0.5,1.5 v 3.9 c 0,0.8 -0.2,1.3 -0.5,1.7 -0.4,0.4 -0.8,0.5 -1.4,0.5 h -4.2 v 24.6 c 0,0.7 -0.1,1.2 -0.4,1.5 -0.3,0.4 -0.8,0.5 -1.5,0.5 h -5.9 c -0.7,0 -1.2,-0.2 -1.4,-0.5 -0.2,-0.4 -0.4,-0.9 -0.4,-1.5 V 556 h -1.9 c -1.4,0 -2.1,-0.7 -2.1,-2.2 v -3.9 c 0,-1.4 0.7,-2.1 2.1,-2.1 h 1.9 z"
   id="path226" />
		<path
   class="st4"
   d="m 1013.6,578 c 0,-1.6 0.6,-3 1.7,-4.1 1.1,-1.1 2.4,-1.7 4,-1.7 1.7,0 3,0.6 4.1,1.7 1.1,1.1 1.6,2.5 1.6,4.1 0,1.6 -0.5,2.9 -1.6,4 -1.1,1.1 -2.5,1.7 -4.1,1.7 -1.6,0 -2.9,-0.6 -4,-1.7 -1.1,-1.1 -1.7,-2.4 -1.7,-4 z"
   id="path228" />
		<path
   class="st4"
   d="m 1031,581.3 v -49.4 c 0,-1 0.5,-1.6 1.5,-1.6 h 6.6 c 1,0 1.6,0.5 1.6,1.6 v 49.4 c 0,1 -0.5,1.6 -1.6,1.6 h -6.6 c -1,-0.1 -1.5,-0.6 -1.5,-1.6 z"
   id="path230" />
		<path
   class="st4"
   d="m 1079.4,551.1 -17.3,44.2 c -0.5,1 -1.2,1.6 -2.3,1.6 h -5.7 c -0.5,0 -1,-0.1 -1.4,-0.3 -0.4,-0.2 -0.6,-0.6 -0.6,-1.2 0,-0.2 0,-0.5 0.1,-0.9 l 4.5,-12 -12.9,-31.6 c -0.1,-0.3 -0.2,-0.5 -0.2,-0.7 0,-0.2 0,-0.4 0,-0.5 0,-1 0.6,-1.6 1.9,-1.6 h 6.2 c 0.6,0 1.1,0.2 1.5,0.5 0.4,0.3 0.6,0.7 0.8,1.2 l 7.7,20.7 7.6,-20.7 c 0.3,-1 1.1,-1.6 2.3,-1.6 h 6.1 c 0.8,0 1.3,0.2 1.6,0.5 0.3,0.3 0.4,0.7 0.4,1.2 0,0.2 -0.1,0.7 -0.3,1.2 z"
   id="path232" />
	</g>
</g>
</svg>
